<?xml version="1.0" encoding="utf-8"?>
<!-- Generator: Adobe Illustrator 27.4.1, SVG Export Plug-In . SVG Version: 6.00 Build 0)  -->
<svg version="1.1" id="Layer_1" xmlns="http://www.w3.org/2000/svg" xmlns:xlink="http://www.w3.org/1999/xlink" x="0px" y="0px"
	 viewBox="0 0 15 16" style="enable-background:new 0 0 15 16;" xml:space="preserve">
<style type="text/css">
	.st0{fill:#0064FF;}
</style>
<g id="Notification" transform="translate(-0.007 -0.235)">
	<path id="Path_43" class="st0" d="M14.8,10.8l-1.7-2.1c-0.3-0.3-0.4-0.7-0.4-1.1V5.8c0-2.9-2.2-5.3-5.1-5.6c-3,0-5.4,2.4-5.4,5.4v2
		c0,0.4-0.1,0.8-0.4,1.1l-1.6,2.1C0,11,0,11.3,0.1,11.6c0.1,0.3,0.4,0.5,0.7,0.5h13.6c0.3,0,0.6-0.2,0.7-0.5
		C15.1,11.3,15,11,14.8,10.8L14.8,10.8z"/>
	<path id="Path_44" class="st0" d="M4.3,13.8c0.3,1.5,1.6,2.5,3.2,2.5c1.5,0.1,2.9-1,3.2-2.5H4.3z"/>
</g>
</svg>
