<?xml version="1.0" encoding="utf-8"?>
<!-- Generator: Adobe Illustrator 27.4.1, SVG Export Plug-In . SVG Version: 6.00 Build 0)  -->
<svg version="1.1" id="Layer_1" xmlns="http://www.w3.org/2000/svg" xmlns:xlink="http://www.w3.org/1999/xlink" x="0px" y="0px"
	 viewBox="0 0 17 15" style="enable-background:new 0 0 17 15;" xml:space="preserve">
<style type="text/css">
	.st0{fill:#87D23D;}
</style>
<path id="Signal" class="st0" d="M2.2,4.9c3.7-3,9-3,12.7,0c0.6,0.5,1.4,0.4,1.9-0.2s0.4-1.4-0.2-1.9c-4.7-3.8-11.3-3.8-16,0
	c-0.6,0.5-0.7,1.3-0.2,1.9S1.6,5.4,2.2,4.9L2.2,4.9z M13.4,9.3c0.5-0.6,0.4-1.4-0.2-1.9c-2.8-2.3-6.8-2.3-9.6,0
	C3,7.8,2.9,8.7,3.4,9.3c0.5,0.6,1.3,0.7,1.9,0.2C7.1,8,9.7,8,11.5,9.5C12.1,9.9,13,9.8,13.4,9.3C13.4,9.3,13.4,9.3,13.4,9.3z
	 M8.5,11c-1.1,0-2,0.9-2,2s0.9,2,2,2s2-0.9,2-2S9.6,11,8.5,11z"/>
</svg>
