<?xml version="1.0" encoding="utf-8"?>
<!-- Generator: Adobe Illustrator 27.4.1, SVG Export Plug-In . SVG Version: 6.00 Build 0)  -->
<svg version="1.1" id="Layer_1" xmlns="http://www.w3.org/2000/svg" xmlns:xlink="http://www.w3.org/1999/xlink" x="0px" y="0px"
	 viewBox="0 0 15 15" style="enable-background:new 0 0 15 15;" xml:space="preserve">
<style type="text/css">
	.st0{fill:#CBCBCB;}
</style>
<path id="Key" class="st0" d="M13.8,0.6L10.9,0c-0.3-0.1-0.5,0-0.7,0.2L5.2,5.2C2.5,5,0.2,7.1,0,9.8c-0.1,1.4,0.4,2.7,1.4,3.7
	c1.9,1.9,5,2,6.9,0.1l0.1-0.1c1-1.1,1.5-2.6,1.4-4V8l1.4,0.1c0.2,0,0.5-0.1,0.6-0.2l0.8-0.8c0.2-0.2,0.2-0.4,0.2-0.6V5.2h1.3
	c0.2,0,0.4-0.1,0.6-0.2l0.1-0.1C15,4.7,15,4.4,15,4.1l-0.6-2.9C14.3,0.9,14.1,0.7,13.8,0.6L13.8,0.6z M6.4,11.7
	c-0.9,0.9-2.2,0.9-3.1,0s-0.9-2.2,0-3.1c0.9-0.9,2.2-0.9,3.1,0c0.4,0.4,0.6,1,0.6,1.5C7.1,10.8,6.8,11.3,6.4,11.7z"/>
</svg>
