<?xml version="1.0" encoding="utf-8"?>
<!-- Generator: Adobe Illustrator 27.4.1, SVG Export Plug-In . SVG Version: 6.00 Build 0)  -->
<svg version="1.1" id="Layer_1" xmlns="http://www.w3.org/2000/svg" xmlns:xlink="http://www.w3.org/1999/xlink" x="0px" y="0px"
	 viewBox="0 0 15 15" style="enable-background:new 0 0 15 15;" xml:space="preserve">
<style type="text/css">
	.st0{fill:#CBCBCB;}
</style>
<g id="Layers" transform="translate(-0.15)">
	<path id="Path_71" class="st0" d="M0.6,4.6L0.6,4.6L7,7.9h0C7.4,8,7.9,8,8.3,7.9h0l6.5-3.2v0c0.3-0.1,0.5-0.5,0.4-0.9
		c-0.1-0.2-0.2-0.3-0.4-0.4L8.3,0.1h0C7.9,0,7.4,0,7,0.1h0L0.6,3.4C0.2,3.5,0.1,3.9,0.2,4.2C0.3,4.4,0.4,4.5,0.6,4.6L0.6,4.6z"/>
	<path id="Path_72" class="st0" d="M14.7,6.7L13.5,6c-2,1-4.7,2.3-4.7,2.4C8,8.7,7.3,8.7,6.6,8.4c0,0-2.7-1.4-4.7-2.3L0.6,6.7
		C0.2,6.8,0.1,7.2,0.2,7.5c0.1,0.2,0.2,0.3,0.4,0.4v0L7,11.1h0c0.4,0.2,0.8,0.2,1.2,0h0l6.5-3.2v0c0.3-0.1,0.5-0.5,0.4-0.8
		C15,6.9,14.9,6.7,14.7,6.7L14.7,6.7z"/>
	<path id="Path_73" class="st0" d="M14.7,10.4l-1.3-0.6c-2,1-4.7,2.3-4.7,2.4c-0.7,0.3-1.5,0.3-2.2,0c0,0-2.7-1.4-4.7-2.3l-1.3,0.6
		c-0.3,0.1-0.5,0.5-0.4,0.8c0.1,0.2,0.2,0.3,0.4,0.4v0L7,14.9h0c0.4,0.2,0.8,0.2,1.2,0h0l6.5-3.2v0c0.3-0.1,0.5-0.5,0.4-0.9
		C15,10.6,14.9,10.5,14.7,10.4L14.7,10.4z"/>
</g>
</svg>
