<?xml version="1.0" encoding="utf-8"?>
<!-- Generator: Adobe Illustrator 27.4.1, SVG Export Plug-In . SVG Version: 6.00 Build 0)  -->
<svg version="1.1" id="Layer_1" xmlns="http://www.w3.org/2000/svg" xmlns:xlink="http://www.w3.org/1999/xlink" x="0px" y="0px"
	 viewBox="0 0 15 15" style="enable-background:new 0 0 15 15;" xml:space="preserve">
<style type="text/css">
	.st0{fill-rule:evenodd;clip-rule:evenodd;fill:#CBCBCB;}
</style>
<g id="Group_325" transform="translate(-74.603 -355.667)">
	<path class="st0" d="M89.5,362.6c0.3,0.6,0.2,1.4-0.3,1.9l-5.6,5.5c-0.7,0.8-2,0.9-2.8,0.2l-0.2-0.2l-5.6-5.5
		c-0.5-0.5-0.6-1.3-0.3-1.9c0.3-0.6,0.9-1,1.6-1.1H78l-3-2.9c-0.5-0.5-0.6-1.3-0.3-1.9c0.3-0.6,0.9-1,1.6-1h11.6
		c0.7,0,1.3,0.4,1.6,1c0.3,0.6,0.2,1.4-0.3,1.9l-3,2.9h1.7C88.6,361.6,89.2,362,89.5,362.6z"/>
</g>
</svg>
