<?xml version="1.0" encoding="utf-8"?>
<!-- Generator: Adobe Illustrator 27.4.1, SVG Export Plug-In . SVG Version: 6.00 Build 0)  -->
<svg version="1.1" id="Layer_1" xmlns="http://www.w3.org/2000/svg" xmlns:xlink="http://www.w3.org/1999/xlink" x="0px" y="0px"
	 viewBox="0 0 19.4 17.4" style="enable-background:new 0 0 19.4 17.4;" xml:space="preserve">
<style type="text/css">
	.st0{fill:#CBCBCB;}
</style>
<g id="BeBold" transform="translate(0.3 0.3)">
	<g id="_1ysjZN" transform="translate(0)">
		<g id="Group_308">
			<g id="Path_74" transform="translate(-11.745 -10.846)">
				<path class="st0" d="M30.7,26.6v-2.5l0,0c-0.2-0.6-0.7-0.9-1.4-0.9h-0.1c-0.3,0-0.7,0-1.2,0h-0.9c-0.3,0-0.6,0-0.9,0
					c-0.8,0-1.3,0.5-1.3,1.3v2.2c0,0.8,0.5,1.3,1.3,1.3h3.1c0.2,0,0.3,0,0.4-0.1c0.5-0.1,0.7-0.5,0.8-0.8l0.1-0.4H30.7z M29.3,24.6
					v1.8h-2.7v-1.8H29.3z"/>
			</g>
			<g id="Path_75" transform="translate(-1.826 -4.208)">
				<path class="st0" d="M11.1,16.5c0,0,0.1,0,0.1,0c0,0,0.1,0,0.1,0H11.1z M4.3,16.5C4.3,16.5,4.4,16.5,4.3,16.5c0.1,0,0.1,0,0.2,0
					H4.3z"/>
				<path class="st0" d="M18.7,13.4c0,0.8,0,1.5,0,2.3c0,0.4-0.3,0.8-0.7,0.8h0c-0.4,0-0.7-0.3-0.7-0.8v-1.9h-5.3v1.9
					c0,0.2,0,0.3-0.1,0.5c-0.1,0.2-0.3,0.3-0.5,0.3h-0.2c-0.3,0-0.5-0.2-0.6-0.5c0-0.1-0.1-0.2-0.1-0.3v-1.8H5.1v1.8
					c0,0.2,0,0.3-0.1,0.4c-0.1,0.2-0.3,0.4-0.6,0.4H4.3c-0.3,0-0.6-0.3-0.6-0.6c0-0.1,0-0.2,0-0.3v-1.1c0-0.3,0-0.7,0-1
					c0-0.7,0.5-1.2,1.2-1.2h5.6V9.6c0-0.5,0.3-0.8,0.7-0.8c0.1,0,0.1,0,0.2,0c0.3,0.1,0.6,0.4,0.6,0.8v2.7h5.6
					C18.2,12.3,18.7,12.8,18.7,13.4z"/>
			</g>
			<g id="Path_76" transform="translate(-5.867)">
				<path class="st0" d="M16.8-0.3h-3.2c-0.8,0-1.3,0.5-1.3,1.3c0,0.8,0,1.5,0,2.3c0,0.7,0.5,1.2,1.2,1.2h1.9v0h1.3
					c0.8,0,1.3-0.5,1.3-1.2V0.9C18.1,0.2,17.6-0.3,16.8-0.3z M16.6,1.2V3h-2.7V1.2H16.6z"/>
			</g>
			<g id="Path_77" transform="translate(0 -10.849)">
				<path class="st0" d="M2.5,23.1C2.5,23.1,2.5,23.1,2.5,23.1c0.1,0,0.1,0,0.2,0H2.5z"/>
				<path class="st0" d="M4.1,23.1H2.6c0,0,0,0-0.1,0c0,0-0.1,0-0.1,0H1c-0.8,0-1.3,0.5-1.3,1.3v2.2c0,0.8,0.5,1.3,1.3,1.3h3.1
					c0.8,0,1.3-0.5,1.3-1.3v-2.3C5.4,23.6,4.9,23.1,4.1,23.1z M3.9,24.6v1.8H1.2v-1.8H3.9z"/>
			</g>
			<g id="Path_78" transform="translate(-5.87 -10.851)">
				<path class="st0" d="M15.1,23.1c0,0,0.1,0,0.1,0c0,0,0.1,0,0.1,0H15.1z"/>
				<path class="st0" d="M16.8,23.1h-1.4c0,0-0.1,0-0.1,0c0,0-0.1,0-0.1,0h-1.5c-0.8,0-1.3,0.5-1.3,1.3v2.2c0,0.8,0.5,1.3,1.3,1.3
					h3.1c0.8,0,1.3-0.5,1.3-1.3v-2.2C18.1,23.6,17.6,23.1,16.8,23.1z M16.6,24.6v1.8h-2.7v-1.8H16.6z"/>
			</g>
		</g>
	</g>
</g>
</svg>
