<?xml version="1.0" encoding="utf-8"?>
<!-- Generator: Adobe Illustrator 27.4.1, SVG Export Plug-In . SVG Version: 6.00 Build 0)  -->
<svg version="1.1" id="Layer_1" xmlns="http://www.w3.org/2000/svg" xmlns:xlink="http://www.w3.org/1999/xlink" x="0px" y="0px"
	 viewBox="0 0 16.2 13.8" style="enable-background:new 0 0 16.2 13.8;" xml:space="preserve">
<style type="text/css">
	.st0{fill:#FF0000;}
</style>
<g id="BeBold" transform="translate(0 -0.001)">
	<g id="USgx7r" transform="translate(0 0.001)">
		<g id="Group_309">
			<path id="Path_79" class="st0" d="M0,7.5c0.1-0.2,0.3-0.3,0.5-0.3c0.2,0,0.5,0,0.7,0C1.1,3.4,4,0.2,7.8,0
				c1.8-0.1,3.6,0.6,4.9,1.8c-0.5,0.6-1,1.1-1.4,1.7C9.8,2,7.3,1.8,5.6,3C4.1,3.9,3.4,5.5,3.5,7.2h1c0.2,0,0.3,0.1,0.4,0.2
				c0.1,0.1,0,0.3-0.1,0.4C4.5,8.2,4.2,8.6,3.8,9C3.4,9.5,3,10,2.5,10.5c0,0,0,0-0.1,0.1L1.1,9c-0.3-0.4-0.7-0.7-1-1.1
				C0.1,7.8,0.1,7.8,0,7.7L0,7.5L0,7.5z"/>
			<path id="Path_80" class="st0" d="M12.7,7.2c-0.3,0-0.6,0-1,0c-0.1,0-0.2-0.1-0.3-0.1c-0.1-0.1-0.2-0.4,0-0.5c0,0,0,0,0,0
				l1.9-2.2c0.1-0.2,0.3-0.3,0.4-0.5c0.2,0.2,0.3,0.3,0.4,0.5c0.6,0.7,1.2,1.4,1.9,2.2c0.1,0.1,0.2,0.3,0.1,0.5
				c-0.1,0.2-0.3,0.3-0.4,0.2c-0.3,0-0.5,0-0.8,0c-0.1,2.9-2.1,5.4-4.9,6.2c-2.2,0.7-4.6,0.3-6.3-1.2c0.5-0.6,1-1.1,1.4-1.7
				c1.5,1.2,3.7,1.3,5.3,0.2C11.9,10,12.7,8.7,12.7,7.2L12.7,7.2z"/>
		</g>
	</g>
</g>
</svg>
