<?xml version="1.0" encoding="utf-8"?>
<!-- Generator: Adobe Illustrator 27.4.1, SVG Export Plug-In . SVG Version: 6.00 Build 0)  -->
<svg version="1.1" id="Layer_1" xmlns="http://www.w3.org/2000/svg" xmlns:xlink="http://www.w3.org/1999/xlink" x="0px" y="0px"
	 viewBox="0 0 12.7 12.7" style="enable-background:new 0 0 12.7 12.7;" xml:space="preserve">
<style type="text/css">
	.st0{fill-rule:evenodd;clip-rule:evenodd;fill:#FF2C41;}
</style>
<path id="Light-mood" class="st0" d="M6.4,3.8C7.8,3.8,9,5,9,6.4C9,7.8,7.8,9,6.4,9C5,9,3.8,7.8,3.8,6.4c0,0,0,0,0,0
	C3.8,5,5,3.8,6.4,3.8z M6.4,0c0.4,0,0.8,0.4,0.8,0.8c0,0,0,0,0,0v0.8c0,0.4-0.4,0.8-0.9,0.7C5.9,2.3,5.6,2,5.6,1.6V0.8
	C5.6,0.4,5.9,0,6.4,0z M6.4,10.4c0.4,0,0.8,0.4,0.8,0.8l0,0V12c0,0.4-0.3,0.8-0.7,0.9c-0.4,0-0.8-0.3-0.9-0.7c0,0,0-0.1,0-0.1v-0.8
	C5.6,10.7,5.9,10.4,6.4,10.4C6.4,10.4,6.4,10.4,6.4,10.4L6.4,10.4z M0.8,5.6h0.8c0.4,0,0.8,0.3,0.9,0.7c0,0.4-0.3,0.8-0.7,0.9
	c0,0-0.1,0-0.1,0H0.8C0.4,7.2,0,6.9-0.1,6.4c0-0.4,0.3-0.8,0.7-0.9C0.7,5.6,0.8,5.6,0.8,5.6z M11.2,5.6H12c0.4,0,0.8,0.3,0.9,0.7
	c0,0.4-0.3,0.8-0.7,0.9c0,0-0.1,0-0.1,0h-0.8c-0.4,0-0.8-0.3-0.9-0.7c0-0.4,0.3-0.8,0.7-0.9C11.1,5.6,11.1,5.6,11.2,5.6z M1.9,1.9
	c0.3-0.3,0.8-0.3,1.1,0l0.6,0.6C3.9,2.7,4,3.2,3.7,3.6S2.9,4,2.6,3.7c0,0-0.1-0.1-0.1-0.1L1.9,3C1.6,2.7,1.6,2.2,1.9,1.9L1.9,1.9z
	 M9.2,9.2c0.3-0.3,0.8-0.3,1.1,0l0.6,0.6c0.3,0.3,0.4,0.8,0.1,1.1c-0.3,0.3-0.8,0.4-1.1,0.1c0,0-0.1,0-0.1-0.1l-0.6-0.6
	C8.9,10,8.9,9.5,9.2,9.2C9.2,9.2,9.2,9.2,9.2,9.2L9.2,9.2z M1.9,9.8l0.6-0.6c0.3-0.3,0.8-0.4,1.1-0.1S4,9.8,3.7,10.2
	c0,0-0.1,0.1-0.1,0.1L3,10.9c-0.3,0.3-0.8,0.4-1.1,0.1C1.5,10.6,1.5,10.1,1.9,9.8C1.8,9.8,1.8,9.8,1.9,9.8L1.9,9.8z M9.2,2.4
	l0.6-0.6c0.3-0.3,0.8-0.3,1.1,0s0.3,0.8,0,1.1c0,0,0,0,0,0l-0.6,0.6C10,3.9,9.5,3.9,9.2,3.7C8.9,3.4,8.8,2.9,9.1,2.5
	C9.1,2.5,9.2,2.5,9.2,2.4z"/>
</svg>
