<?xml version="1.0" encoding="utf-8"?>
<!-- Generator: Adobe Illustrator 27.4.1, SVG Export Plug-In . SVG Version: 6.00 Build 0)  -->
<svg version="1.1" id="Layer_1" xmlns="http://www.w3.org/2000/svg" xmlns:xlink="http://www.w3.org/1999/xlink" x="0px" y="0px"
	 viewBox="0 0 16 16" style="enable-background:new 0 0 16 16;" xml:space="preserve">
<style type="text/css">
	.st0{opacity:0.6;}
	.st1{fill:#FF0000;}
	.st2{fill:#FFFFFF;}
</style>
<g id="Group_1352" transform="translate(-18 -8)" class="st0">
	<circle id="Ellipse_6" class="st1" cx="26" cy="16" r="8"/>
	<g id="ic_Plus" transform="translate(21.873 11.873)">
		<g id="Path">
			<path class="st2" d="M8.5,4.1c0,0.4-0.3,0.7-0.7,0.7h-3v3c0,0.4-0.3,0.7-0.7,0.7h0c-0.2,0-0.3-0.1-0.5-0.2C3.5,8.2,3.4,8,3.4,7.9
				v-3h-3c-0.4,0-0.7-0.3-0.7-0.7c0-0.4,0.3-0.7,0.7-0.7h3v-3c0-0.2,0.1-0.4,0.2-0.5C3.8-0.2,4-0.2,4.2-0.2c0.4,0,0.7,0.3,0.7,0.7v3
				h3C8.2,3.4,8.5,3.7,8.5,4.1z"/>
		</g>
	</g>
</g>
</svg>
