<?xml version="1.0" encoding="utf-8"?>
<!-- Generator: Adobe Illustrator 27.4.1, SVG Export Plug-In . SVG Version: 6.00 Build 0)  -->
<svg version="1.1" id="Layer_1" xmlns="http://www.w3.org/2000/svg" xmlns:xlink="http://www.w3.org/1999/xlink" x="0px" y="0px"
	 viewBox="0 0 15 16" style="enable-background:new 0 0 15 16;" xml:space="preserve">
<g id="Notification" transform="translate(-0.007 -0.235)">
	<path id="Path_43" d="M14.7,10.8L13,8.7c-0.3-0.3-0.4-0.7-0.4-1.1V5.8c0-2.9-2.2-5.3-5.1-5.6c-3,0-5.4,2.4-5.4,5.4v2
		C2.1,8,2,8.4,1.7,8.7l-1.6,2.1C-0.1,11-0.1,11.3,0,11.6s0.4,0.5,0.7,0.5h13.6c0.3,0,0.6-0.2,0.7-0.5C15,11.3,14.9,11,14.7,10.8
		L14.7,10.8z"/>
	<path id="Path_44" d="M4.2,13.8c0.3,1.5,1.6,2.5,3.2,2.5c1.5,0.1,2.9-1,3.2-2.5C10.6,13.8,4.2,13.8,4.2,13.8z"/>
</g>
</svg>
