<?xml version="1.0" encoding="utf-8"?>
<!-- Generator: Adobe Illustrator 27.4.1, SVG Export Plug-In . SVG Version: 6.00 Build 0)  -->
<svg version="1.1" id="Info" xmlns="http://www.w3.org/2000/svg" xmlns:xlink="http://www.w3.org/1999/xlink" x="0px" y="0px"
	 viewBox="0 0 5.7 13.4" style="enable-background:new 0 0 5.7 13.4;" xml:space="preserve">
<g>
	<circle id="Ellipse_5" cx="2.7" cy="2.1" r="2.1"/>
	<path id="Path_20" d="M5.1,11.8c-0.3,0-0.6-0.3-0.6-0.6V6.3c0-0.3-0.3-0.6-0.6-0.6H0.6C0.3,5.7,0,6,0,6.3v0.4
		c0,0.3,0.3,0.6,0.6,0.6S1.3,7.6,1.3,8v3.1c0,0.3-0.3,0.6-0.6,0.6S0,12,0,12.4v0.4c0,0.3,0.3,0.6,0.6,0.6h4.5c0.3,0,0.6-0.3,0.6-0.6
		v-0.4C5.7,12,5.5,11.8,5.1,11.8L5.1,11.8z"/>
</g>
</svg>
