<?xml version="1.0" encoding="utf-8"?>
<!-- Generator: Adobe Illustrator 27.4.1, SVG Export Plug-In . SVG Version: 6.00 Build 0)  -->
<svg version="1.1" id="Layer_1" xmlns="http://www.w3.org/2000/svg" xmlns:xlink="http://www.w3.org/1999/xlink" x="0px" y="0px"
	 viewBox="0 0 12.7 12.7" style="enable-background:new 0 0 12.7 12.7;" xml:space="preserve">
<style type="text/css">
	.st0{fill-rule:evenodd;clip-rule:evenodd;}
</style>
<path id="Light-mood" class="st0" d="M6.4,3.7c1.4,0,2.6,1.2,2.6,2.6S7.8,8.9,6.4,8.9S3.8,7.7,3.8,6.3l0,0C3.8,4.9,5,3.7,6.4,3.7z
	 M6.4-0.1c0.4,0,0.8,0.4,0.8,0.8l0,0v0.8c0,0.4-0.4,0.8-0.9,0.7c-0.4,0-0.7-0.3-0.7-0.7V0.7C5.6,0.3,5.9-0.1,6.4-0.1z M6.4,10.3
	c0.4,0,0.8,0.4,0.8,0.8l0,0v0.8c0,0.4-0.3,0.8-0.7,0.9c-0.4,0-0.8-0.3-0.9-0.7V12v-0.8C5.6,10.6,5.9,10.3,6.4,10.3L6.4,10.3
	L6.4,10.3z M0.8,5.5h0.8c0.4,0,0.8,0.3,0.9,0.7c0,0.4-0.3,0.8-0.7,0.9H1.6H0.8C0.4,7.1,0,6.8-0.1,6.3c0-0.4,0.3-0.8,0.7-0.9
	C0.7,5.5,0.8,5.5,0.8,5.5z M11.1,5.5h0.8c0.4,0,0.8,0.3,0.9,0.7c0,0.4-0.3,0.8-0.7,0.9H12h-0.8c-0.4,0-0.8-0.3-0.9-0.7
	c0-0.4,0.3-0.8,0.7-0.9C11.1,5.5,11.1,5.5,11.1,5.5z M1.9,1.8c0.3-0.3,0.8-0.3,1.1,0l0.6,0.6C3.9,2.6,4,3.1,3.7,3.5S2.9,3.9,2.5,3.6
	L2.5,3.5L1.9,2.9C1.6,2.6,1.6,2.1,1.9,1.8L1.9,1.8z M9.1,9.1c0.3-0.3,0.8-0.3,1.1,0l0.6,0.6c0.3,0.3,0.4,0.8,0.1,1.1
	c-0.3,0.3-0.8,0.4-1.1,0.1c0,0-0.1,0-0.1-0.1l-0.6-0.6C8.8,9.9,8.8,9.4,9.1,9.1L9.1,9.1L9.1,9.1z M1.9,9.7l0.6-0.6
	C2.8,8.8,3.2,8.7,3.5,9S4,9.7,3.7,10.1l-0.1,0.1L3,10.8c-0.3,0.3-0.8,0.4-1.1,0.1C1.5,10.5,1.5,10,1.9,9.7C1.8,9.7,1.8,9.7,1.9,9.7
	L1.9,9.7z M9.1,2.3l0.6-0.6c0.3-0.3,0.8-0.3,1.1,0s0.3,0.8,0,1.1l0,0l-0.6,0.6C9.9,3.8,9.4,3.8,9.1,3.6C8.8,3.3,8.8,2.8,9.1,2.3
	C9.1,2.4,9.1,2.4,9.1,2.3z"/>
</svg>
