<?xml version="1.0" encoding="utf-8"?>
<!-- Generator: Adobe Illustrator 27.4.1, SVG Export Plug-In . SVG Version: 6.00 Build 0)  -->
<svg version="1.1" id="Layer_1" xmlns="http://www.w3.org/2000/svg" xmlns:xlink="http://www.w3.org/1999/xlink" x="0px" y="0px"
	 viewBox="0 0 17 15" style="enable-background:new 0 0 17 15;" xml:space="preserve">
<path id="Signal" d="M2.1,4.9c3.7-3,9-3,12.7,0c0.6,0.5,1.4,0.4,1.9-0.2s0.4-1.4-0.2-1.9C11.8-1,5.2-1,0.5,2.8
	c-0.6,0.5-0.7,1.3-0.2,1.9S1.5,5.4,2.1,4.9L2.1,4.9z M13.3,9.3c0.5-0.6,0.4-1.4-0.2-1.9c-2.8-2.3-6.8-2.3-9.6,0
	C2.9,7.8,2.8,8.7,3.3,9.3S4.6,10,5.2,9.5C7,8,9.6,8,11.4,9.5C12,9.9,12.9,9.8,13.3,9.3L13.3,9.3z M8.4,11c-1.1,0-2,0.9-2,2
	s0.9,2,2,2s2-0.9,2-2S9.5,11,8.4,11z"/>
</svg>
