<?xml version="1.0" encoding="utf-8"?>
<!-- Generator: Adobe Illustrator 27.4.1, SVG Export Plug-In . SVG Version: 6.00 Build 0)  -->
<svg version="1.1" id="Layer_1" xmlns="http://www.w3.org/2000/svg" xmlns:xlink="http://www.w3.org/1999/xlink" x="0px" y="0px"
	 viewBox="0 0 15 18" style="enable-background:new 0 0 15 18;" xml:space="preserve">
<g id="Layer_1-2" transform="translate(0 -0.017)">
	<g id="UadNVf" transform="translate(0 0.017)">
		<path id="Path_45" d="M7,18l-0.5-0.1c-2.2-0.2-4.1-1.4-5.3-3.1c-0.9-1.2-1.2-2.7-1.1-4.2c0-0.9,0.2-1.7,0.5-2.5s0.9-1.5,1.6-2
			C2.5,5.9,2.9,6,2.9,6.4c0.1,0.7,0.5,1.4,1,1.9C4.2,8.7,4.6,8.9,5,9c0-0.6,0-1.2,0.1-1.7c0.1-2.2,1-4.2,2.6-5.8
			c0.5-0.5,1-1,1.6-1.4C9.4,0,9.6,0,9.8,0C9.9,0.1,10,0.3,10,0.5c0,1,0.4,2,1,2.8s1.3,1.7,1.9,2.5c0.9,1.1,1.6,2.4,1.9,3.8
			c0.3,1.2,0.2,2.4-0.1,3.6c-0.4,1.1-1.1,2.1-1.9,2.9c-0.8,0.7-1.8,1.3-2.9,1.6c-0.5,0.1-1.1,0.2-1.7,0.3c-0.1,0-0.1,0-0.2,0H7z
			 M5.2,13.5c-0.4,0.9-0.3,2,0.4,2.8c0.5,0.6,1.2,0.9,2,0.9c1.3,0,2.4-1.1,2.4-2.4c0-0.1,0-0.1,0-0.2c-0.1-0.7-0.4-1.5-0.9-2
			c-0.3-0.4-0.6-0.8-0.9-1.2C8.1,11.3,8,11.1,8,10.9c-0.5,0.5-0.8,1.1-0.9,1.8C7,13.1,7,13.6,7,14c0,0.3-0.2,0.5-0.6,0.4
			c-0.3,0-0.6-0.1-0.8-0.3C5.5,13.9,5.4,13.7,5.2,13.5L5.2,13.5z"/>
	</g>
</g>
</svg>
