<?xml version="1.0" encoding="utf-8"?>
<!-- Generator: Adobe Illustrator 27.4.1, SVG Export Plug-In . SVG Version: 6.00 Build 0)  -->
<svg version="1.1" id="Layer_1" xmlns="http://www.w3.org/2000/svg" xmlns:xlink="http://www.w3.org/1999/xlink" x="0px" y="0px"
	 viewBox="0 0 19.4 17.4" style="enable-background:new 0 0 19.4 17.4;" xml:space="preserve">
<g id="BeBold" transform="translate(0.3 0.3)">
	<g id="_1ysjZN" transform="translate(0)">
		<g id="Group_308">
			<g id="Path_74" transform="translate(-11.745 -10.846)">
				<path d="M30.8,26.6v-2.5l0,0c-0.2-0.6-0.7-0.9-1.4-0.9h-0.1c-0.3,0-0.7,0-1.2,0h-0.9c-0.3,0-0.6,0-0.9,0c-0.8,0-1.3,0.5-1.3,1.3
					v2.2c0,0.8,0.5,1.3,1.3,1.3h3.1c0.2,0,0.3,0,0.4-0.1c0.5-0.1,0.7-0.5,0.8-0.8l0.1-0.4h0.1V26.6z M29.4,24.6v1.8h-2.7v-1.8H29.4z
					"/>
			</g>
			<g id="Path_75" transform="translate(-1.826 -4.208)">
				<path d="M11.2,16.5h0.1h0.1H11.2z M4.4,16.5C4.4,16.5,4.5,16.5,4.4,16.5c0.1,0,0.1,0,0.2,0H4.4z"/>
				<path d="M18.8,13.4c0,0.8,0,1.5,0,2.3c0,0.4-0.3,0.8-0.7,0.8l0,0c-0.4,0-0.7-0.3-0.7-0.8v-1.9h-5.3v1.9c0,0.2,0,0.3-0.1,0.5
					s-0.3,0.3-0.5,0.3h-0.2c-0.3,0-0.5-0.2-0.6-0.5c0-0.1-0.1-0.2-0.1-0.3v-1.8H5.2v1.8c0,0.2,0,0.3-0.1,0.4
					c-0.1,0.2-0.3,0.4-0.6,0.4H4.4c-0.3,0-0.6-0.3-0.6-0.6c0-0.1,0-0.2,0-0.3v-1.1c0-0.3,0-0.7,0-1c0-0.7,0.5-1.2,1.2-1.2h5.6V9.6
					c0-0.5,0.3-0.8,0.7-0.8c0.1,0,0.1,0,0.2,0c0.3,0.1,0.6,0.4,0.6,0.8v2.7h5.6C18.3,12.3,18.8,12.8,18.8,13.4z"/>
			</g>
			<g id="Path_76" transform="translate(-5.867)">
				<path d="M16.9-0.3h-3.2c-0.8,0-1.3,0.5-1.3,1.3s0,1.5,0,2.3c0,0.7,0.5,1.2,1.2,1.2h1.9l0,0h1.3c0.8,0,1.3-0.5,1.3-1.2V0.9
					C18.2,0.2,17.7-0.3,16.9-0.3z M16.7,1.2V3H14V1.2H16.7z"/>
			</g>
			<g id="Path_77" transform="translate(0 -10.849)">
				<path d="M2.6,23.1L2.6,23.1c0.1,0,0.1,0,0.2,0H2.6z"/>
				<path d="M4.2,23.1H2.7c0,0,0,0-0.1,0H2.5H1.1c-0.8,0-1.3,0.5-1.3,1.3v2.2c0,0.8,0.5,1.3,1.3,1.3h3.1c0.8,0,1.3-0.5,1.3-1.3v-2.3
					C5.5,23.6,5,23.1,4.2,23.1z M4,24.6v1.8H1.3v-1.8H4z"/>
			</g>
			<g id="Path_78" transform="translate(-5.87 -10.851)">
				<path d="M15.2,23.1h0.1h0.1H15.2z"/>
				<path d="M16.9,23.1h-1.4h-0.1h-0.1h-1.5c-0.8,0-1.3,0.5-1.3,1.3v2.2c0,0.8,0.5,1.3,1.3,1.3h3.1c0.8,0,1.3-0.5,1.3-1.3v-2.2
					C18.2,23.6,17.7,23.1,16.9,23.1z M16.7,24.6v1.8H14v-1.8H16.7z"/>
			</g>
		</g>
	</g>
</g>
</svg>
