<?xml version="1.0" encoding="utf-8"?>
<!-- Generator: Adobe Illustrator 27.4.1, SVG Export Plug-In . SVG Version: 6.00 Build 0)  -->
<svg version="1.1" id="Layer_1" xmlns="http://www.w3.org/2000/svg" xmlns:xlink="http://www.w3.org/1999/xlink" x="0px" y="0px"
	 viewBox="0 0 14.9 15.3" style="enable-background:new 0 0 14.9 15.3;" xml:space="preserve">
<style type="text/css">
	.st0{fill-rule:evenodd;clip-rule:evenodd;}
</style>
<path id="Settings" class="st0" d="M13.5,6.5l1-0.5c0.4-0.2,0.5-0.6,0.3-1l0,0l-1.2-2.1c-0.2-0.3-0.6-0.5-0.9-0.3l-1.1,0.6
	c-0.4,0.2-0.8,0.1-1.2-0.1C10.3,3,10.1,3,10,2.9c-0.4-0.2-0.6-0.6-0.6-1V0.7C9.4,0.3,9.1,0,8.7,0l0,0H6.2C5.8,0,5.5,0.3,5.5,0.7v1.2
	c0,0.4-0.3,0.8-0.6,1C4.8,2.9,4.7,3,4.5,3.1c-0.3,0.2-0.8,0.2-1.1,0L2.5,2.7C2.2,2.5,1.7,2.6,1.5,3L0.4,5C0.2,5.3,0.3,5.8,0.6,5.9
	l0,0l0.8,0.5C1.8,6.6,2,7,2,7.4v0.3c0,0.4-0.2,0.8-0.6,1l-1,0.6C0,9.5-0.1,9.9,0.1,10.2l0,0l1.2,2.1c0.2,0.3,0.6,0.5,0.9,0.3L3.3,12
	c0.4-0.2,0.8-0.1,1.2,0.1c0.1,0.1,0.3,0.2,0.5,0.3c0.4,0.2,0.6,0.6,0.6,1v1.2c0,0.4,0.3,0.7,0.7,0.7l0,0h2.4c0.4,0,0.7-0.3,0.7-0.7
	l0,0v-1.2c0-0.4,0.3-0.8,0.6-1c0.1-0.1,0.2-0.1,0.4-0.2c0.4-0.2,0.8-0.2,1.2-0.1l0.8,0.5c0.3,0.2,0.8,0.1,0.9-0.3l1.2-2.1
	c0.2-0.3,0.1-0.7-0.2-0.9l0,0l-0.8-0.5c-0.3-0.2-0.5-0.6-0.5-1V7.5C12.9,7.1,13.1,6.8,13.5,6.5z M7.4,10.3c-1.5,0-2.7-1.2-2.7-2.7
	s1.2-2.7,2.7-2.7s2.7,1.2,2.7,2.7c0,0.7-0.3,1.4-0.8,1.9C8.9,10,8.2,10.3,7.4,10.3z"/>
</svg>
