<?xml version="1.0" encoding="utf-8"?>
<!-- Generator: Adobe Illustrator 27.4.1, SVG Export Plug-In . SVG Version: 6.00 Build 0)  -->
<svg version="1.1" id="Group_336" xmlns="http://www.w3.org/2000/svg" xmlns:xlink="http://www.w3.org/1999/xlink" x="0px" y="0px"
	 viewBox="0 0 12.2 12.2" style="enable-background:new 0 0 12.2 12.2;" xml:space="preserve">
<style type="text/css">
	.st0{fill:#FFFFFF;}
</style>
<g id="Sign-out" transform="translate(0 0)">
	<path id="Path_86" class="st0" d="M6.9,5.1H3.5l0.6-0.6C4.5,4,4.5,3.4,4,3c-0.4-0.4-1-0.4-1.4,0L0.3,5.4c-0.4,0.4-0.4,1,0,1.4
		c0,0,0,0,0,0l2.4,2.4c0.4,0.4,1,0.4,1.4,0s0.4-1,0-1.4L3.5,7.1h3.4c0.6,0,1-0.5,1-1C7.9,5.5,7.5,5.1,6.9,5.1z"/>
	<path id="Path_87" class="st0" d="M11.9,0.3C11.6,0.1,11.4,0,11.1,0H8.3C7.6,0,7.1,0.5,7.1,1.1s0.5,1.1,1.1,1.2c0,0,0.1,0,0.1,0
		h1.7v7.7H8.3c-0.6,0-1.1,0.5-1.1,1.2c0,0.6,0.5,1.1,1.1,1.1h2.8c0.6,0,1.1-0.5,1.1-1.1V1.1C12.2,0.8,12.1,0.5,11.9,0.3L11.9,0.3z"
		/>
</g>
</svg>
