<?xml version="1.0" encoding="utf-8"?>
<!-- Generator: Adobe Illustrator 27.4.1, SVG Export Plug-In . SVG Version: 6.00 Build 0)  -->
<svg version="1.1" id="Layer_1" xmlns="http://www.w3.org/2000/svg" xmlns:xlink="http://www.w3.org/1999/xlink" x="0px" y="0px"
	 viewBox="0 0 16 16" style="enable-background:new 0 0 16 16;" xml:space="preserve">
<g id="Group_1352" transform="translate(-18 -8)">
	<path d="M26,8c-4.4,0-8,3.6-8,8c0,4.4,3.6,8,8,8s8-3.6,8-8C34,11.6,30.4,8,26,8z M29.7,16.7h-3v3c0,0.4-0.3,0.7-0.7,0.7
		c-0.2,0-0.3-0.1-0.5-0.2c-0.1-0.1-0.2-0.3-0.2-0.4v-3h-3c-0.4,0-0.7-0.3-0.7-0.7c0-0.4,0.3-0.7,0.7-0.7h3v-3c0-0.2,0.1-0.4,0.2-0.5
		c0.2-0.2,0.4-0.2,0.6-0.2c0.4,0,0.7,0.3,0.7,0.7v3h3c0.3-0.1,0.6,0.2,0.6,0.6S30.1,16.7,29.7,16.7z"/>
</g>
</svg>
