<?xml version="1.0" encoding="utf-8"?>
<!-- Generator: Adobe Illustrator 27.4.1, SVG Export Plug-In . SVG Version: 6.00 Build 0)  -->
<svg version="1.1" id="Layer_1" xmlns="http://www.w3.org/2000/svg" xmlns:xlink="http://www.w3.org/1999/xlink" x="0px" y="0px"
	 viewBox="0 0 14.2 13.1" style="enable-background:new 0 0 14.2 13.1;" xml:space="preserve">
<g id="Group_632" transform="translate(-413.354 -1026.751)">
	<g id="ic_Chevron" transform="translate(427.21 1027.132) rotate(90)">
		<g id="Shape">
			<path d="M10.9,13L6.2,8.3L1.5,13c-0.1,0.1-0.3,0.2-0.5,0.2S0.7,13.1,0.5,13c-0.1-0.1-0.2-0.3-0.2-0.5s0.1-0.4,0.2-0.6l5.2-5.1
				c0.3-0.3,0.7-0.3,1,0l5.2,5.1c0.3,0.4,0.3,0.8,0,1.1C11.6,13.3,11.2,13.3,10.9,13z"/>
		</g>
	</g>
	<g id="ic_Chevron-2" transform="translate(420.903 1027.132) rotate(90)">
		<g id="Shape-2">
			<path d="M10.9,0.4L6.2-4.3L1.5,0.4c-0.2,0.3-0.7,0.3-1,0C0.4,0.3,0.3,0.1,0.3-0.1s0.1-0.4,0.2-0.6l5.2-5.1c0.3-0.3,0.7-0.3,1,0
				l5.2,5.2c0.3,0.2,0.3,0.7,0,1C11.6,0.7,11.2,0.7,10.9,0.4z"/>
		</g>
	</g>
</g>
</svg>
